<svg xmlns="http://www.w3.org/2000/svg" xmlns:xlink="http://www.w3.org/1999/xlink" width="1080" height="1920" viewBox="0 0 1080 1920">
<title>Fruit Box Instagram story</title>
<!-- Editable layout: vectors + live text (fonts: Cairo, Poppins in /fonts). The Fruit Box logo is the original raster artwork linked as PNG. -->
<defs>
<filter id="shadow" x="-30%" y="-30%" width="160%" height="170%"><feDropShadow dx="0" dy="18" stdDeviation="22" flood-color="#3B1A0C" flood-opacity=".22"/></filter>
<filter id="shadowS" x="-30%" y="-30%" width="160%" height="170%"><feDropShadow dx="0" dy="6" stdDeviation="8" flood-color="#3B1A0C" flood-opacity=".22"/></filter>
<filter id="blur40"><feGaussianBlur stdDeviation="40"/></filter>
<filter id="blur12"><feGaussianBlur stdDeviation="12"/></filter>
<radialGradient id="floor" cx="50%" cy="50%" r="50%"><stop offset="0" stop-color="#3B1A0C" stop-opacity=".35"/><stop offset="1" stop-color="#3B1A0C" stop-opacity="0"/></radialGradient>
<linearGradient id="smoothie" x1="0" x2="1"><stop offset="0" stop-color="#F7B3AE"/><stop offset=".55" stop-color="#F08C8C"/><stop offset="1" stop-color="#D9606A"/></linearGradient>
<linearGradient id="clear" x1="0" x2="1"><stop offset="0" stop-color="#ffffff" stop-opacity=".55"/><stop offset=".3" stop-color="#ffffff" stop-opacity=".12"/><stop offset=".8" stop-color="#ffffff" stop-opacity=".05"/><stop offset="1" stop-color="#ffffff" stop-opacity=".4"/></linearGradient>
<linearGradient id="paper" x1="0" x2="1"><stop offset="0" stop-color="#E9DDCD"/><stop offset=".25" stop-color="#FDF8F3"/><stop offset=".7" stop-color="#F6EEE3"/><stop offset="1" stop-color="#DCCBB6"/></linearGradient>
<linearGradient id="kraft" x1="0" x2="1"><stop offset="0" stop-color="#E6D6C1"/><stop offset=".5" stop-color="#F4EADF"/><stop offset="1" stop-color="#E0CDB5"/></linearGradient>
<linearGradient id="cocoaG" x1="0" x2="1"><stop offset="0" stop-color="#4E1F0F"/><stop offset=".45" stop-color="#6E2E17"/><stop offset="1" stop-color="#4A1D0E"/></linearGradient>
<linearGradient id="tealG" x1="0" x2="1"><stop offset="0" stop-color="#5EAE99"/><stop offset=".5" stop-color="#7CC6B2"/><stop offset="1" stop-color="#5AA792"/></linearGradient>
<linearGradient id="glassWin" x1="0" y1="0" x2="1" y2="1"><stop offset="0" stop-color="#CFE9E2"/><stop offset=".5" stop-color="#A9D6CA"/><stop offset="1" stop-color="#8CC3B5"/></linearGradient>
<linearGradient id="fadeDown" x1="0" y1="0" x2="0" y2="1"><stop offset="0" stop-color="#000" stop-opacity="0"/><stop offset="1" stop-color="#000" stop-opacity=".1"/></linearGradient>
<pattern id="dots" width="44" height="44" patternUnits="userSpaceOnUse"><circle cx="6" cy="6" r="3" fill="#71BCA8" opacity=".35"/><circle cx="28" cy="28" r="3" fill="#F39A99" opacity=".45"/></pattern>
<pattern id="stripes" width="120" height="10" patternUnits="userSpaceOnUse"><rect width="60" height="10" fill="#71BCA8"/><rect x="60" width="60" height="10" fill="#FDF8F3"/></pattern>
</defs>
<rect id="background" width="1080" height="1920" fill="#602713"/>
<rect width="1080" height="1920" fill="url(#dots)" opacity=".18"/><circle cx="540" cy="1020" r="520" fill="#71BCA8" opacity=".25"/>
<image id="logo" href="../../01-logo/fruitbox-logo-dark-bg-version-transparent.png" x="350.0" y="145.5" width="380.0" height="309.0" preserveAspectRatio="xMidYMid meet"/>
<text x="540" y="600" font-family="Cairo, 'Noto Sans Arabic', sans-serif" font-size="92" font-weight="900" fill="#FDF8F3" text-anchor="middle" direction="rtl" >بوكس الفواكه اليومي</text><text x="540" y="690" font-family="Cairo, 'Noto Sans Arabic', sans-serif" font-size="40" font-weight="700" fill="#71BCA8" text-anchor="middle" direction="rtl" >فواكه موسمية مقطّعة وجاهزة • تصلك باردة</text>
<g filter="url(#shadow)"><rect x="190" y="800" width="700" height="520" rx="40" fill="#FDF8F3"/></g>
<rect x="230" y="840" width="620" height="440" rx="26" fill="#F7EFE4"/>
<g transform="translate(340 960) rotate(-10) scale(0.5)">
<path d="M0 -78 C70 -86 118 -52 112 6 C106 70 46 118 0 132 C-46 118 -106 70 -112 6 C-118 -52 -70 -86 0 -78 Z" fill="#C1232C"/>
<path d="M-70 -40 C-60 -70 -20 -76 10 -72 C-30 -60 -56 -30 -64 10 Z" fill="#fff" opacity=".22"/>
<g fill="#FFE9A8"><ellipse cx="-50" cy="-10" rx="6" ry="9"/><ellipse cx="-12" cy="-22" rx="6" ry="9"/><ellipse cx="30" cy="-12" rx="6" ry="9"/><ellipse cx="66" cy="-4" rx="6" ry="9"/><ellipse cx="-66" cy="30" rx="6" ry="9"/><ellipse cx="-28" cy="22" rx="6" ry="9"/><ellipse cx="12" cy="26" rx="6" ry="9"/><ellipse cx="52" cy="32" rx="6" ry="9"/><ellipse cx="-36" cy="66" rx="6" ry="9"/><ellipse cx="4" cy="70" rx="6" ry="9"/><ellipse cx="36" cy="72" rx="6" ry="9"/></g>
<path d="M0 -70 L-70 -104 L-34 -64 L-96 -52 L-24 -48 Z M0 -70 L70 -104 L34 -64 L96 -52 L24 -48 Z M-10 -60 L0 -124 L10 -60 Z" fill="#5F973E"/></g><g transform="translate(500 950)"><circle r="70" fill="#F08A24"/><circle r="60.199999999999996" fill="#FFF4DA"/><circle r="56.0" fill="#FFB44D"/><path d="M0 0 L56.0 0.0" stroke="#FFF4DA" stroke-width="3.5"/><path d="M0 0 L39.6 39.6" stroke="#FFF4DA" stroke-width="3.5"/><path d="M0 0 L0.0 56.0" stroke="#FFF4DA" stroke-width="3.5"/><path d="M0 0 L-39.6 39.6" stroke="#FFF4DA" stroke-width="3.5"/><path d="M0 0 L-56.0 0.0" stroke="#FFF4DA" stroke-width="3.5"/><path d="M0 0 L-39.6 -39.6" stroke="#FFF4DA" stroke-width="3.5"/><path d="M0 0 L-0.0 -56.0" stroke="#FFF4DA" stroke-width="3.5"/><path d="M0 0 L39.6 -39.6" stroke="#FFF4DA" stroke-width="3.5"/><circle r="5.6000000000000005" fill="#FFF4DA"/></g><g transform="translate(680 960)"><circle r="72" fill="#7A5A2E"/><circle r="64.8" fill="#8CC63F"/><circle r="21.599999999999998" fill="#E8F5C8"/><ellipse cx="30.2" cy="0.0" rx="2.9" ry="5.8" transform="rotate(90 30.2 0.0)" fill="#2B1A12"/><ellipse cx="27.2" cy="13.1" rx="2.9" ry="5.8" transform="rotate(116 27.2 13.1)" fill="#2B1A12"/><ellipse cx="18.9" cy="23.6" rx="2.9" ry="5.8" transform="rotate(141 18.9 23.6)" fill="#2B1A12"/><ellipse cx="6.7" cy="29.5" rx="2.9" ry="5.8" transform="rotate(167 6.7 29.5)" fill="#2B1A12"/><ellipse cx="-6.7" cy="29.5" rx="2.9" ry="5.8" transform="rotate(193 -6.7 29.5)" fill="#2B1A12"/><ellipse cx="-18.9" cy="23.6" rx="2.9" ry="5.8" transform="rotate(219 -18.9 23.6)" fill="#2B1A12"/><ellipse cx="-27.2" cy="13.1" rx="2.9" ry="5.8" transform="rotate(244 -27.2 13.1)" fill="#2B1A12"/><ellipse cx="-30.2" cy="0.0" rx="2.9" ry="5.8" transform="rotate(270 -30.2 0.0)" fill="#2B1A12"/><ellipse cx="-27.2" cy="-13.1" rx="2.9" ry="5.8" transform="rotate(296 -27.2 -13.1)" fill="#2B1A12"/><ellipse cx="-18.9" cy="-23.6" rx="2.9" ry="5.8" transform="rotate(321 -18.9 -23.6)" fill="#2B1A12"/><ellipse cx="-6.7" cy="-29.5" rx="2.9" ry="5.8" transform="rotate(347 -6.7 -29.5)" fill="#2B1A12"/><ellipse cx="6.7" cy="-29.5" rx="2.9" ry="5.8" transform="rotate(373 6.7 -29.5)" fill="#2B1A12"/><ellipse cx="18.9" cy="-23.6" rx="2.9" ry="5.8" transform="rotate(399 18.9 -23.6)" fill="#2B1A12"/><ellipse cx="27.2" cy="-13.1" rx="2.9" ry="5.8" transform="rotate(424 27.2 -13.1)" fill="#2B1A12"/></g><g transform="translate(360 1150)"><circle r="66" fill="#7A5A2E"/><circle r="59.4" fill="#8CC63F"/><circle r="19.8" fill="#E8F5C8"/><ellipse cx="27.7" cy="0.0" rx="2.6" ry="5.3" transform="rotate(90 27.7 0.0)" fill="#2B1A12"/><ellipse cx="25.0" cy="12.0" rx="2.6" ry="5.3" transform="rotate(116 25.0 12.0)" fill="#2B1A12"/><ellipse cx="17.3" cy="21.7" rx="2.6" ry="5.3" transform="rotate(141 17.3 21.7)" fill="#2B1A12"/><ellipse cx="6.2" cy="27.0" rx="2.6" ry="5.3" transform="rotate(167 6.2 27.0)" fill="#2B1A12"/><ellipse cx="-6.2" cy="27.0" rx="2.6" ry="5.3" transform="rotate(193 -6.2 27.0)" fill="#2B1A12"/><ellipse cx="-17.3" cy="21.7" rx="2.6" ry="5.3" transform="rotate(219 -17.3 21.7)" fill="#2B1A12"/><ellipse cx="-25.0" cy="12.0" rx="2.6" ry="5.3" transform="rotate(244 -25.0 12.0)" fill="#2B1A12"/><ellipse cx="-27.7" cy="0.0" rx="2.6" ry="5.3" transform="rotate(270 -27.7 0.0)" fill="#2B1A12"/><ellipse cx="-25.0" cy="-12.0" rx="2.6" ry="5.3" transform="rotate(296 -25.0 -12.0)" fill="#2B1A12"/><ellipse cx="-17.3" cy="-21.7" rx="2.6" ry="5.3" transform="rotate(321 -17.3 -21.7)" fill="#2B1A12"/><ellipse cx="-6.2" cy="-27.0" rx="2.6" ry="5.3" transform="rotate(347 -6.2 -27.0)" fill="#2B1A12"/><ellipse cx="6.2" cy="-27.0" rx="2.6" ry="5.3" transform="rotate(373 6.2 -27.0)" fill="#2B1A12"/><ellipse cx="17.3" cy="-21.7" rx="2.6" ry="5.3" transform="rotate(399 17.3 -21.7)" fill="#2B1A12"/><ellipse cx="25.0" cy="-12.0" rx="2.6" ry="5.3" transform="rotate(424 25.0 -12.0)" fill="#2B1A12"/></g><g transform="translate(540 1150) rotate(15) scale(0.5)">
<path d="M0 -78 C70 -86 118 -52 112 6 C106 70 46 118 0 132 C-46 118 -106 70 -112 6 C-118 -52 -70 -86 0 -78 Z" fill="#C1232C"/>
<path d="M-70 -40 C-60 -70 -20 -76 10 -72 C-30 -60 -56 -30 -64 10 Z" fill="#fff" opacity=".22"/>
<g fill="#FFE9A8"><ellipse cx="-50" cy="-10" rx="6" ry="9"/><ellipse cx="-12" cy="-22" rx="6" ry="9"/><ellipse cx="30" cy="-12" rx="6" ry="9"/><ellipse cx="66" cy="-4" rx="6" ry="9"/><ellipse cx="-66" cy="30" rx="6" ry="9"/><ellipse cx="-28" cy="22" rx="6" ry="9"/><ellipse cx="12" cy="26" rx="6" ry="9"/><ellipse cx="52" cy="32" rx="6" ry="9"/><ellipse cx="-36" cy="66" rx="6" ry="9"/><ellipse cx="4" cy="70" rx="6" ry="9"/><ellipse cx="36" cy="72" rx="6" ry="9"/></g>
<path d="M0 -70 L-70 -104 L-34 -64 L-96 -52 L-24 -48 Z M0 -70 L70 -104 L34 -64 L96 -52 L24 -48 Z M-10 -60 L0 -124 L10 -60 Z" fill="#5F973E"/></g><g transform="translate(720 1150)"><circle r="68" fill="#F08A24"/><circle r="58.48" fill="#FFF4DA"/><circle r="54.400000000000006" fill="#FFB44D"/><path d="M0 0 L54.4 0.0" stroke="#FFF4DA" stroke-width="3.4"/><path d="M0 0 L38.5 38.5" stroke="#FFF4DA" stroke-width="3.4"/><path d="M0 0 L0.0 54.4" stroke="#FFF4DA" stroke-width="3.4"/><path d="M0 0 L-38.5 38.5" stroke="#FFF4DA" stroke-width="3.4"/><path d="M0 0 L-54.4 0.0" stroke="#FFF4DA" stroke-width="3.4"/><path d="M0 0 L-38.5 -38.5" stroke="#FFF4DA" stroke-width="3.4"/><path d="M0 0 L-0.0 -54.4" stroke="#FFF4DA" stroke-width="3.4"/><path d="M0 0 L38.5 -38.5" stroke="#FFF4DA" stroke-width="3.4"/><circle r="5.44" fill="#FFF4DA"/></g><path d="M230 1060 H850" stroke="#E0CDB5" stroke-width="6"/><path d="M540 840 V1280" stroke="#E0CDB5" stroke-width="6" opacity="0"/>
<rect x="390" y="1290" width="300" height="70" rx="12" fill="#8A3D1F"/><text x="540" y="1338" font-family="Cairo, 'Noto Sans Arabic', sans-serif" font-size="40" font-weight="900" fill="#FDF8F3" text-anchor="middle" direction="rtl" >ابتداءً من ٢٩</text>
<text x="540" y="1460" font-family="Cairo, 'Noto Sans Arabic', sans-serif" font-size="64" font-weight="900" fill="#F39A99" text-anchor="middle" direction="rtl" >فاكهتك على مزاجك</text>
<rect x="240" y="1620" width="600" height="120" rx="60" fill="#71BCA8"/><text x="540" y="1698" font-family="Cairo, 'Noto Sans Arabic', sans-serif" font-size="44" font-weight="900" fill="#602713" text-anchor="middle" direction="rtl" >اسحب للأعلى واطلب الآن</text>
<path d="M510 1590 L540 1560 L570 1590" stroke="#FDF8F3" stroke-width="8" fill="none" stroke-linecap="round" stroke-linejoin="round"/>
</svg>
